<svg width="534" height="170" viewBox="0 0 534 170" fill="none" xmlns="http://www.w3.org/2000/svg">
<rect width="534" height="170" rx="20" fill="url(#paint0_linear_725_8)"/>
<path d="M173.535 96.44C172.508 96.44 171.72 96.1467 171.17 95.56C170.62 94.9733 170.345 94.1667 170.345 93.14V60.085C170.345 59.0217 170.638 58.215 171.225 57.665C171.812 57.0783 172.618 56.785 173.645 56.785C174.562 56.785 175.277 56.9683 175.79 57.335C176.34 57.665 176.835 58.2517 177.275 59.095L190.86 84.23H189.1L202.685 59.095C203.125 58.2517 203.602 57.665 204.115 57.335C204.628 56.9683 205.343 56.785 206.26 56.785C207.287 56.785 208.075 57.0783 208.625 57.665C209.175 58.215 209.45 59.0217 209.45 60.085V93.14C209.45 94.1667 209.175 94.9733 208.625 95.56C208.112 96.1467 207.323 96.44 206.26 96.44C205.233 96.44 204.445 96.1467 203.895 95.56C203.345 94.9733 203.07 94.1667 203.07 93.14V67.675H204.28L192.73 88.74C192.363 89.3633 191.978 89.8217 191.575 90.115C191.172 90.4083 190.622 90.555 189.925 90.555C189.228 90.555 188.66 90.4083 188.22 90.115C187.78 89.785 187.395 89.3267 187.065 88.74L175.405 67.62H176.725V93.14C176.725 94.1667 176.45 94.9733 175.9 95.56C175.387 96.1467 174.598 96.44 173.535 96.44ZM220.734 96.385C219.634 96.385 218.791 96.055 218.204 95.395C217.617 94.735 217.324 93.8183 217.324 92.645V72.46C217.324 71.25 217.617 70.3333 218.204 69.71C218.791 69.05 219.634 68.72 220.734 68.72C221.834 68.72 222.677 69.05 223.264 69.71C223.887 70.3333 224.199 71.25 224.199 72.46V92.645C224.199 93.8183 223.906 94.735 223.319 95.395C222.732 96.055 221.871 96.385 220.734 96.385ZM220.734 63.605C219.451 63.605 218.442 63.2933 217.709 62.67C217.012 62.01 216.664 61.1117 216.664 59.975C216.664 58.8017 217.012 57.9033 217.709 57.28C218.442 56.6567 219.451 56.345 220.734 56.345C222.054 56.345 223.062 56.6567 223.759 57.28C224.456 57.9033 224.804 58.8017 224.804 59.975C224.804 61.1117 224.456 62.01 223.759 62.67C223.062 63.2933 222.054 63.605 220.734 63.605ZM233.213 96.275C232.406 96.275 231.728 96.055 231.178 95.615C230.664 95.1383 230.389 94.5333 230.353 93.8C230.353 93.0667 230.664 92.2967 231.288 91.49L240.198 80.49V83.735L231.838 73.45C231.178 72.6433 230.866 71.8733 230.903 71.14C230.939 70.4067 231.214 69.82 231.728 69.38C232.278 68.9033 232.956 68.665 233.763 68.665C234.606 68.665 235.303 68.8117 235.853 69.105C236.439 69.3983 236.971 69.8567 237.448 70.48L244.048 78.95H241.628L248.283 70.48C248.796 69.8567 249.328 69.3983 249.878 69.105C250.428 68.8117 251.106 68.665 251.913 68.665C252.756 68.665 253.434 68.9033 253.948 69.38C254.461 69.8567 254.718 70.4617 254.718 71.195C254.754 71.9283 254.443 72.6983 253.783 73.505L245.478 83.68V80.6L254.388 91.49C255.048 92.26 255.359 93.0117 255.323 93.745C255.286 94.4783 254.993 95.0833 254.443 95.56C253.929 96.0367 253.251 96.275 252.408 96.275C251.601 96.275 250.923 96.1283 250.373 95.835C249.823 95.5417 249.291 95.0833 248.778 94.46L241.628 85.44H243.938L236.843 94.46C236.366 95.0467 235.853 95.505 235.303 95.835C234.753 96.1283 234.056 96.275 233.213 96.275ZM264.777 106.34C263.677 106.34 262.834 106.047 262.247 105.46C261.66 104.873 261.367 104.012 261.367 102.875V72.13C261.367 70.9933 261.66 70.1317 262.247 69.545C262.834 68.9583 263.659 68.665 264.722 68.665C265.822 68.665 266.665 68.9583 267.252 69.545C267.839 70.1317 268.132 70.9933 268.132 72.13V76.42L267.527 74.77C268.077 72.9 269.195 71.3967 270.882 70.26C272.605 69.1233 274.604 68.555 276.877 68.555C279.224 68.555 281.277 69.1233 283.037 70.26C284.834 71.3967 286.227 73.01 287.217 75.1C288.207 77.1533 288.702 79.6283 288.702 82.525C288.702 85.385 288.207 87.8783 287.217 90.005C286.227 92.095 284.852 93.7083 283.092 94.845C281.332 95.9817 279.26 96.55 276.877 96.55C274.64 96.55 272.679 96 270.992 94.9C269.305 93.7633 268.169 92.2967 267.582 90.5H268.242V102.875C268.242 104.012 267.93 104.873 267.307 105.46C266.72 106.047 265.877 106.34 264.777 106.34ZM274.952 91.325C276.309 91.325 277.5 90.995 278.527 90.335C279.554 89.675 280.342 88.7033 280.892 87.42C281.479 86.1 281.772 84.4683 281.772 82.525C281.772 79.5917 281.149 77.41 279.902 75.98C278.655 74.5133 277.005 73.78 274.952 73.78C273.595 73.78 272.404 74.11 271.377 74.77C270.35 75.3933 269.544 76.365 268.957 77.685C268.407 78.9683 268.132 80.5817 268.132 82.525C268.132 85.4217 268.755 87.6217 270.002 89.125C271.249 90.5917 272.899 91.325 274.952 91.325ZM306.611 96.55C303.824 96.55 301.404 95.9817 299.351 94.845C297.297 93.7083 295.702 92.095 294.566 90.005C293.429 87.8783 292.861 85.385 292.861 82.525C292.861 80.3617 293.172 78.4367 293.796 76.75C294.456 75.0267 295.391 73.56 296.601 72.35C297.811 71.1033 299.259 70.1683 300.946 69.545C302.632 68.885 304.521 68.555 306.611 68.555C309.397 68.555 311.817 69.1233 313.871 70.26C315.924 71.3967 317.519 73.01 318.656 75.1C319.792 77.19 320.361 79.665 320.361 82.525C320.361 84.6883 320.031 86.6317 319.371 88.355C318.747 90.0783 317.831 91.5633 316.621 92.81C315.411 94.02 313.962 94.955 312.276 95.615C310.589 96.2383 308.701 96.55 306.611 96.55ZM306.611 91.325C307.967 91.325 309.159 90.995 310.186 90.335C311.212 89.675 312.001 88.7033 312.551 87.42C313.137 86.1 313.431 84.4683 313.431 82.525C313.431 79.5917 312.807 77.41 311.561 75.98C310.314 74.5133 308.664 73.78 306.611 73.78C305.254 73.78 304.062 74.11 303.036 74.77C302.009 75.3933 301.202 76.365 300.616 77.685C300.066 78.9683 299.791 80.5817 299.791 82.525C299.791 85.4217 300.414 87.6217 301.661 89.125C302.907 90.5917 304.557 91.325 306.611 91.325ZM335.88 96.55C334.303 96.55 332.635 96.385 330.875 96.055C329.115 95.725 327.538 95.1567 326.145 94.35C325.558 93.9833 325.137 93.5617 324.88 93.085C324.66 92.5717 324.568 92.0767 324.605 91.6C324.678 91.0867 324.862 90.6467 325.155 90.28C325.485 89.9133 325.888 89.675 326.365 89.565C326.878 89.455 327.428 89.5467 328.015 89.84C329.482 90.5367 330.857 91.0317 332.14 91.325C333.423 91.5817 334.688 91.71 335.935 91.71C337.695 91.71 338.997 91.4167 339.84 90.83C340.72 90.2067 341.16 89.4 341.16 88.41C341.16 87.5667 340.867 86.925 340.28 86.485C339.73 86.0083 338.887 85.66 337.75 85.44L332.25 84.395C329.977 83.955 328.235 83.13 327.025 81.92C325.852 80.6733 325.265 79.0783 325.265 77.135C325.265 75.375 325.742 73.8533 326.695 72.57C327.685 71.2867 329.042 70.2967 330.765 69.6C332.488 68.9033 334.468 68.555 336.705 68.555C338.318 68.555 339.822 68.7383 341.215 69.105C342.645 69.435 344.02 69.9667 345.34 70.7C345.89 70.9933 346.257 71.3783 346.44 71.855C346.66 72.3317 346.715 72.8267 346.605 73.34C346.495 73.8167 346.275 74.2567 345.945 74.66C345.615 75.0267 345.193 75.265 344.68 75.375C344.203 75.4483 343.653 75.3383 343.03 75.045C341.893 74.4583 340.793 74.0367 339.73 73.78C338.703 73.5233 337.713 73.395 336.76 73.395C334.963 73.395 333.625 73.7067 332.745 74.33C331.902 74.9533 331.48 75.7783 331.48 76.805C331.48 77.575 331.737 78.2167 332.25 78.73C332.763 79.2433 333.552 79.5917 334.615 79.775L340.115 80.82C342.498 81.26 344.295 82.0667 345.505 83.24C346.752 84.4133 347.375 85.99 347.375 87.97C347.375 90.6467 346.33 92.755 344.24 94.295C342.15 95.7983 339.363 96.55 335.88 96.55ZM364.942 96.55C362.559 96.55 360.56 96.1467 358.947 95.34C357.37 94.5333 356.197 93.36 355.427 91.82C354.657 90.2433 354.272 88.3 354.272 85.99V74.275H351.412C350.532 74.275 349.854 74.055 349.377 73.615C348.9 73.1383 348.662 72.4967 348.662 71.69C348.662 70.8467 348.9 70.205 349.377 69.765C349.854 69.325 350.532 69.105 351.412 69.105H354.272V64.1C354.272 62.9633 354.565 62.1017 355.152 61.515C355.775 60.9283 356.637 60.635 357.737 60.635C358.837 60.635 359.68 60.9283 360.267 61.515C360.854 62.1017 361.147 62.9633 361.147 64.1V69.105H366.977C367.857 69.105 368.535 69.325 369.012 69.765C369.489 70.205 369.727 70.8467 369.727 71.69C369.727 72.4967 369.489 73.1383 369.012 73.615C368.535 74.055 367.857 74.275 366.977 74.275H361.147V85.605C361.147 87.365 361.532 88.685 362.302 89.565C363.072 90.445 364.319 90.885 366.042 90.885C366.665 90.885 367.215 90.83 367.692 90.72C368.169 90.61 368.59 90.5367 368.957 90.5C369.397 90.4633 369.764 90.61 370.057 90.94C370.35 91.2333 370.497 91.8567 370.497 92.81C370.497 93.5433 370.369 94.2033 370.112 94.79C369.892 95.34 369.47 95.725 368.847 95.945C368.37 96.0917 367.747 96.22 366.977 96.33C366.207 96.4767 365.529 96.55 364.942 96.55Z" fill="#F9FAFB"/>
<rect x="23" y="25" width="100" height="100" rx="20" fill="#84E9F5"/>
<rect x="41" y="44" width="100" height="100" rx="20" fill="#FFAB4C"/>
<rect x="32" y="36" width="100" height="100" rx="20" fill="#4F46BB"/>
<path d="M171.056 126.144C170.555 126.144 170.069 126.101 169.6 126.016C169.131 125.941 168.688 125.824 168.272 125.664C167.856 125.504 167.483 125.307 167.152 125.072C167.013 124.976 166.912 124.859 166.848 124.72C166.795 124.581 166.779 124.448 166.8 124.32C166.832 124.181 166.891 124.064 166.976 123.968C167.072 123.872 167.184 123.813 167.312 123.792C167.44 123.771 167.579 123.813 167.728 123.92C168.219 124.251 168.731 124.491 169.264 124.64C169.808 124.789 170.405 124.864 171.056 124.864C171.995 124.864 172.683 124.693 173.12 124.352C173.568 124.011 173.792 123.563 173.792 123.008C173.792 122.549 173.632 122.192 173.312 121.936C172.992 121.669 172.453 121.461 171.696 121.312L170 120.96C168.997 120.747 168.245 120.395 167.744 119.904C167.253 119.413 167.008 118.757 167.008 117.936C167.008 117.435 167.109 116.981 167.312 116.576C167.515 116.16 167.803 115.803 168.176 115.504C168.549 115.205 168.987 114.976 169.488 114.816C170 114.656 170.565 114.576 171.184 114.576C171.845 114.576 172.464 114.667 173.04 114.848C173.627 115.029 174.155 115.296 174.624 115.648C174.752 115.744 174.837 115.861 174.88 116C174.923 116.128 174.928 116.256 174.896 116.384C174.875 116.512 174.816 116.619 174.72 116.704C174.635 116.789 174.523 116.837 174.384 116.848C174.256 116.859 174.112 116.811 173.952 116.704C173.525 116.405 173.088 116.192 172.64 116.064C172.192 115.925 171.701 115.856 171.168 115.856C170.624 115.856 170.149 115.941 169.744 116.112C169.349 116.283 169.04 116.523 168.816 116.832C168.603 117.131 168.496 117.483 168.496 117.888C168.496 118.379 168.645 118.763 168.944 119.04C169.243 119.317 169.744 119.531 170.448 119.68L172.128 120.016C173.195 120.24 173.984 120.587 174.496 121.056C175.019 121.515 175.28 122.133 175.28 122.912C175.28 123.403 175.179 123.845 174.976 124.24C174.784 124.635 174.507 124.976 174.144 125.264C173.781 125.541 173.339 125.76 172.816 125.92C172.293 126.069 171.707 126.144 171.056 126.144ZM180.659 126.144C179.816 126.144 179.091 125.984 178.483 125.664C177.885 125.333 177.421 124.869 177.091 124.272C176.76 123.664 176.595 122.949 176.595 122.128C176.595 121.317 176.755 120.608 177.075 120C177.405 119.392 177.853 118.917 178.419 118.576C178.995 118.235 179.651 118.064 180.387 118.064C180.909 118.064 181.379 118.155 181.795 118.336C182.221 118.507 182.584 118.757 182.883 119.088C183.181 119.419 183.405 119.824 183.555 120.304C183.715 120.773 183.795 121.307 183.795 121.904C183.795 122.075 183.741 122.208 183.635 122.304C183.539 122.389 183.395 122.432 183.203 122.432H177.731V121.504H182.835L182.563 121.728C182.563 121.173 182.477 120.704 182.307 120.32C182.147 119.925 181.907 119.627 181.587 119.424C181.277 119.221 180.888 119.12 180.419 119.12C179.907 119.12 179.469 119.243 179.107 119.488C178.744 119.723 178.467 120.059 178.275 120.496C178.083 120.923 177.987 121.419 177.987 121.984V122.08C177.987 123.04 178.216 123.765 178.675 124.256C179.133 124.747 179.795 124.992 180.659 124.992C181 124.992 181.347 124.949 181.699 124.864C182.061 124.779 182.408 124.624 182.739 124.4C182.899 124.304 183.043 124.261 183.171 124.272C183.309 124.272 183.421 124.315 183.507 124.4C183.592 124.475 183.645 124.571 183.667 124.688C183.688 124.795 183.672 124.912 183.619 125.04C183.565 125.168 183.464 125.28 183.315 125.376C182.963 125.621 182.541 125.813 182.051 125.952C181.571 126.08 181.107 126.144 180.659 126.144ZM188.054 126.144C187.254 126.144 186.646 125.909 186.23 125.44C185.814 124.96 185.606 124.272 185.606 123.376V115.344C185.606 115.099 185.67 114.917 185.798 114.8C185.926 114.672 186.102 114.608 186.326 114.608C186.56 114.608 186.742 114.672 186.87 114.8C186.998 114.917 187.062 115.099 187.062 115.344V123.264C187.062 123.819 187.174 124.235 187.398 124.512C187.632 124.779 187.963 124.912 188.39 124.912C188.486 124.912 188.571 124.912 188.646 124.912C188.72 124.901 188.795 124.891 188.87 124.88C188.987 124.869 189.072 124.901 189.126 124.976C189.179 125.051 189.206 125.2 189.206 125.424C189.206 125.627 189.158 125.787 189.062 125.904C188.976 126.011 188.832 126.08 188.63 126.112C188.534 126.123 188.438 126.128 188.342 126.128C188.246 126.139 188.15 126.144 188.054 126.144ZM191.477 126.112C191.242 126.112 191.061 126.048 190.933 125.92C190.805 125.792 190.741 125.605 190.741 125.36V119.328H189.781C189.589 119.328 189.44 119.28 189.333 119.184C189.226 119.077 189.173 118.939 189.173 118.768C189.173 118.587 189.226 118.448 189.333 118.352C189.44 118.256 189.589 118.208 189.781 118.208H191.141L190.741 118.592V118C190.741 116.965 190.992 116.181 191.493 115.648C192.005 115.104 192.752 114.789 193.733 114.704L194.229 114.672C194.389 114.651 194.517 114.677 194.613 114.752C194.709 114.816 194.773 114.901 194.805 115.008C194.837 115.115 194.837 115.227 194.805 115.344C194.784 115.451 194.736 115.547 194.661 115.632C194.586 115.717 194.49 115.765 194.373 115.776L194.021 115.792C193.381 115.845 192.917 116.037 192.629 116.368C192.341 116.688 192.197 117.168 192.197 117.808V118.448L191.989 118.208H193.829C194.032 118.208 194.186 118.256 194.293 118.352C194.4 118.448 194.453 118.587 194.453 118.768C194.453 118.939 194.4 119.077 194.293 119.184C194.186 119.28 194.032 119.328 193.829 119.328H192.197V125.36C192.197 125.861 191.957 126.112 191.477 126.112ZM196.054 122.336C195.883 122.336 195.739 122.277 195.622 122.16C195.505 122.043 195.446 121.899 195.446 121.728C195.446 121.557 195.505 121.419 195.622 121.312C195.739 121.195 195.883 121.136 196.054 121.136H199.622C199.782 121.136 199.921 121.195 200.038 121.312C200.166 121.419 200.23 121.557 200.23 121.728C200.23 121.899 200.166 122.043 200.038 122.16C199.921 122.277 199.782 122.336 199.622 122.336H196.054ZM203.138 126.112C202.914 126.112 202.738 126.048 202.61 125.92C202.482 125.792 202.418 125.605 202.418 125.36V115.344C202.418 115.099 202.482 114.917 202.61 114.8C202.738 114.672 202.914 114.608 203.138 114.608C203.373 114.608 203.554 114.672 203.682 114.8C203.81 114.917 203.874 115.099 203.874 115.344V119.904H203.666C203.89 119.296 204.253 118.837 204.754 118.528C205.266 118.219 205.847 118.064 206.498 118.064C207.127 118.064 207.645 118.181 208.05 118.416C208.455 118.64 208.759 118.981 208.962 119.44C209.165 119.899 209.266 120.475 209.266 121.168V125.36C209.266 125.605 209.202 125.792 209.074 125.92C208.957 126.048 208.781 126.112 208.546 126.112C208.311 126.112 208.13 126.048 208.002 125.92C207.874 125.792 207.81 125.605 207.81 125.36V121.248C207.81 120.555 207.677 120.048 207.41 119.728C207.143 119.408 206.717 119.248 206.13 119.248C205.447 119.248 204.898 119.461 204.482 119.888C204.077 120.304 203.874 120.869 203.874 121.584V125.36C203.874 125.861 203.629 126.112 203.138 126.112ZM214.886 126.144C214.118 126.144 213.452 125.979 212.886 125.648C212.321 125.317 211.884 124.848 211.574 124.24C211.265 123.632 211.11 122.917 211.11 122.096C211.11 121.477 211.196 120.923 211.366 120.432C211.548 119.931 211.804 119.504 212.134 119.152C212.465 118.8 212.86 118.533 213.318 118.352C213.788 118.16 214.31 118.064 214.886 118.064C215.654 118.064 216.321 118.229 216.886 118.56C217.452 118.891 217.889 119.36 218.198 119.968C218.508 120.565 218.662 121.275 218.662 122.096C218.662 122.715 218.572 123.275 218.39 123.776C218.22 124.277 217.969 124.704 217.638 125.056C217.308 125.408 216.908 125.68 216.438 125.872C215.98 126.053 215.462 126.144 214.886 126.144ZM214.886 124.992C215.356 124.992 215.761 124.88 216.102 124.656C216.454 124.432 216.721 124.107 216.902 123.68C217.094 123.253 217.19 122.725 217.19 122.096C217.19 121.157 216.982 120.443 216.566 119.952C216.15 119.461 215.59 119.216 214.886 119.216C214.428 119.216 214.022 119.328 213.67 119.552C213.329 119.765 213.062 120.085 212.87 120.512C212.678 120.939 212.582 121.467 212.582 122.096C212.582 123.035 212.79 123.755 213.206 124.256C213.633 124.747 214.193 124.992 214.886 124.992ZM223.215 126.144C222.735 126.144 222.25 126.091 221.759 125.984C221.279 125.867 220.826 125.669 220.399 125.392C220.282 125.317 220.197 125.227 220.143 125.12C220.101 125.003 220.085 124.891 220.095 124.784C220.117 124.667 220.165 124.565 220.239 124.48C220.314 124.395 220.405 124.347 220.511 124.336C220.629 124.315 220.751 124.341 220.879 124.416C221.295 124.651 221.695 124.816 222.079 124.912C222.474 125.008 222.863 125.056 223.247 125.056C223.834 125.056 224.277 124.949 224.575 124.736C224.874 124.523 225.023 124.24 225.023 123.888C225.023 123.589 224.922 123.36 224.719 123.2C224.527 123.029 224.223 122.901 223.807 122.816L222.319 122.512C221.658 122.363 221.157 122.117 220.815 121.776C220.485 121.424 220.319 120.976 220.319 120.432C220.319 119.952 220.447 119.536 220.703 119.184C220.97 118.821 221.338 118.544 221.807 118.352C222.277 118.16 222.815 118.064 223.423 118.064C223.893 118.064 224.335 118.128 224.751 118.256C225.178 118.373 225.562 118.555 225.903 118.8C226.031 118.875 226.111 118.971 226.143 119.088C226.186 119.195 226.191 119.307 226.159 119.424C226.138 119.531 226.09 119.621 226.015 119.696C225.941 119.771 225.845 119.819 225.727 119.84C225.61 119.851 225.482 119.819 225.343 119.744C225.034 119.531 224.714 119.381 224.383 119.296C224.063 119.2 223.743 119.152 223.423 119.152C222.847 119.152 222.41 119.264 222.111 119.488C221.823 119.712 221.679 120.005 221.679 120.368C221.679 120.645 221.765 120.875 221.935 121.056C222.117 121.237 222.399 121.371 222.783 121.456L224.271 121.76C224.965 121.909 225.487 122.149 225.839 122.48C226.191 122.8 226.367 123.237 226.367 123.792C226.367 124.517 226.079 125.093 225.503 125.52C224.938 125.936 224.175 126.144 223.215 126.144ZM231.416 126.144C230.786 126.144 230.258 126.032 229.832 125.808C229.416 125.584 229.101 125.259 228.888 124.832C228.685 124.405 228.584 123.883 228.584 123.264V119.328H227.56C227.368 119.328 227.218 119.28 227.112 119.184C227.005 119.077 226.952 118.939 226.952 118.768C226.952 118.587 227.005 118.448 227.112 118.352C227.218 118.256 227.368 118.208 227.56 118.208H228.584V116.464C228.584 116.219 228.648 116.037 228.776 115.92C228.904 115.792 229.085 115.728 229.32 115.728C229.554 115.728 229.73 115.792 229.848 115.92C229.976 116.037 230.04 116.219 230.04 116.464V118.208H231.976C232.178 118.208 232.333 118.256 232.44 118.352C232.546 118.448 232.6 118.587 232.6 118.768C232.6 118.939 232.546 119.077 232.44 119.184C232.333 119.28 232.178 119.328 231.976 119.328H230.04V123.136C230.04 123.723 230.162 124.165 230.408 124.464C230.653 124.763 231.058 124.912 231.624 124.912C231.826 124.912 231.997 124.896 232.136 124.864C232.274 124.821 232.397 124.8 232.504 124.8C232.6 124.789 232.68 124.821 232.744 124.896C232.818 124.971 232.856 125.109 232.856 125.312C232.856 125.461 232.829 125.6 232.776 125.728C232.733 125.845 232.642 125.925 232.504 125.968C232.376 126.011 232.205 126.048 231.992 126.08C231.778 126.123 231.586 126.144 231.416 126.144ZM237.44 126.144C236.597 126.144 235.872 125.984 235.264 125.664C234.667 125.333 234.203 124.869 233.872 124.272C233.541 123.664 233.376 122.949 233.376 122.128C233.376 121.317 233.536 120.608 233.856 120C234.187 119.392 234.635 118.917 235.2 118.576C235.776 118.235 236.432 118.064 237.168 118.064C237.691 118.064 238.16 118.155 238.576 118.336C239.003 118.507 239.365 118.757 239.664 119.088C239.963 119.419 240.187 119.824 240.336 120.304C240.496 120.773 240.576 121.307 240.576 121.904C240.576 122.075 240.523 122.208 240.416 122.304C240.32 122.389 240.176 122.432 239.984 122.432H234.512V121.504H239.616L239.344 121.728C239.344 121.173 239.259 120.704 239.088 120.32C238.928 119.925 238.688 119.627 238.368 119.424C238.059 119.221 237.669 119.12 237.2 119.12C236.688 119.12 236.251 119.243 235.888 119.488C235.525 119.723 235.248 120.059 235.056 120.496C234.864 120.923 234.768 121.419 234.768 121.984V122.08C234.768 123.04 234.997 123.765 235.456 124.256C235.915 124.747 236.576 124.992 237.44 124.992C237.781 124.992 238.128 124.949 238.48 124.864C238.843 124.779 239.189 124.624 239.52 124.4C239.68 124.304 239.824 124.261 239.952 124.272C240.091 124.272 240.203 124.315 240.288 124.4C240.373 124.475 240.427 124.571 240.448 124.688C240.469 124.795 240.453 124.912 240.4 125.04C240.347 125.168 240.245 125.28 240.096 125.376C239.744 125.621 239.323 125.813 238.832 125.952C238.352 126.08 237.888 126.144 237.44 126.144ZM245.363 126.144C244.68 126.144 244.077 125.984 243.555 125.664C243.043 125.333 242.643 124.864 242.355 124.256C242.067 123.637 241.923 122.917 241.923 122.096C241.923 121.264 242.061 120.549 242.339 119.952C242.627 119.344 243.027 118.88 243.539 118.56C244.061 118.229 244.669 118.064 245.363 118.064C246.056 118.064 246.653 118.24 247.155 118.592C247.656 118.933 247.992 119.392 248.163 119.968H247.987V115.344C247.987 115.099 248.045 114.917 248.163 114.8C248.291 114.672 248.472 114.608 248.707 114.608C248.941 114.608 249.123 114.672 249.251 114.8C249.379 114.917 249.443 115.099 249.443 115.344V125.36C249.443 125.605 249.379 125.792 249.251 125.92C249.123 126.048 248.941 126.112 248.707 126.112C248.483 126.112 248.307 126.048 248.179 125.92C248.051 125.792 247.987 125.605 247.987 125.36V123.904L248.163 124.192C248.003 124.789 247.667 125.264 247.155 125.616C246.653 125.968 246.056 126.144 245.363 126.144ZM245.699 124.992C246.168 124.992 246.573 124.88 246.915 124.656C247.267 124.432 247.533 124.107 247.715 123.68C247.907 123.253 248.003 122.725 248.003 122.096C248.003 121.157 247.795 120.443 247.379 119.952C246.963 119.461 246.403 119.216 245.699 119.216C245.24 119.216 244.835 119.328 244.483 119.552C244.141 119.765 243.875 120.085 243.683 120.512C243.491 120.939 243.395 121.467 243.395 122.096C243.395 123.035 243.603 123.755 244.019 124.256C244.445 124.747 245.005 124.992 245.699 124.992ZM258.637 126.144C258.157 126.144 257.672 126.091 257.181 125.984C256.701 125.867 256.248 125.669 255.821 125.392C255.704 125.317 255.619 125.227 255.565 125.12C255.523 125.003 255.507 124.891 255.517 124.784C255.539 124.667 255.587 124.565 255.661 124.48C255.736 124.395 255.827 124.347 255.933 124.336C256.051 124.315 256.173 124.341 256.301 124.416C256.717 124.651 257.117 124.816 257.501 124.912C257.896 125.008 258.285 125.056 258.669 125.056C259.256 125.056 259.699 124.949 259.997 124.736C260.296 124.523 260.445 124.24 260.445 123.888C260.445 123.589 260.344 123.36 260.141 123.2C259.949 123.029 259.645 122.901 259.229 122.816L257.741 122.512C257.08 122.363 256.579 122.117 256.237 121.776C255.907 121.424 255.741 120.976 255.741 120.432C255.741 119.952 255.869 119.536 256.125 119.184C256.392 118.821 256.76 118.544 257.229 118.352C257.699 118.16 258.237 118.064 258.845 118.064C259.315 118.064 259.757 118.128 260.173 118.256C260.6 118.373 260.984 118.555 261.325 118.8C261.453 118.875 261.533 118.971 261.565 119.088C261.608 119.195 261.613 119.307 261.581 119.424C261.56 119.531 261.512 119.621 261.437 119.696C261.363 119.771 261.267 119.819 261.149 119.84C261.032 119.851 260.904 119.819 260.765 119.744C260.456 119.531 260.136 119.381 259.805 119.296C259.485 119.2 259.165 119.152 258.845 119.152C258.269 119.152 257.832 119.264 257.533 119.488C257.245 119.712 257.101 120.005 257.101 120.368C257.101 120.645 257.187 120.875 257.357 121.056C257.539 121.237 257.821 121.371 258.205 121.456L259.693 121.76C260.387 121.909 260.909 122.149 261.261 122.48C261.613 122.8 261.789 123.237 261.789 123.792C261.789 124.517 261.501 125.093 260.925 125.52C260.36 125.936 259.597 126.144 258.637 126.144ZM266.996 126.144C266.228 126.144 265.561 125.979 264.996 125.648C264.43 125.317 263.993 124.848 263.684 124.24C263.374 123.632 263.22 122.917 263.22 122.096C263.22 121.477 263.305 120.923 263.476 120.432C263.657 119.931 263.913 119.504 264.244 119.152C264.574 118.8 264.969 118.533 265.428 118.352C265.897 118.16 266.42 118.064 266.996 118.064C267.764 118.064 268.43 118.229 268.996 118.56C269.561 118.891 269.998 119.36 270.308 119.968C270.617 120.565 270.772 121.275 270.772 122.096C270.772 122.715 270.681 123.275 270.5 123.776C270.329 124.277 270.078 124.704 269.748 125.056C269.417 125.408 269.017 125.68 268.548 125.872C268.089 126.053 267.572 126.144 266.996 126.144ZM266.996 124.992C267.465 124.992 267.87 124.88 268.212 124.656C268.564 124.432 268.83 124.107 269.012 123.68C269.204 123.253 269.3 122.725 269.3 122.096C269.3 121.157 269.092 120.443 268.676 119.952C268.26 119.461 267.7 119.216 266.996 119.216C266.537 119.216 266.132 119.328 265.78 119.552C265.438 119.765 265.172 120.085 264.98 120.512C264.788 120.939 264.692 121.467 264.692 122.096C264.692 123.035 264.9 123.755 265.316 124.256C265.742 124.747 266.302 124.992 266.996 124.992ZM276.013 126.144C275.223 126.144 274.541 125.979 273.965 125.648C273.389 125.307 272.946 124.832 272.637 124.224C272.327 123.605 272.173 122.88 272.173 122.048C272.173 121.429 272.258 120.875 272.429 120.384C272.61 119.893 272.866 119.477 273.197 119.136C273.527 118.784 273.927 118.517 274.397 118.336C274.877 118.155 275.415 118.064 276.013 118.064C276.386 118.064 276.781 118.123 277.197 118.24C277.613 118.357 277.997 118.549 278.349 118.816C278.466 118.901 278.541 119.003 278.573 119.12C278.605 119.227 278.605 119.339 278.573 119.456C278.551 119.573 278.498 119.675 278.413 119.76C278.338 119.835 278.237 119.877 278.109 119.888C277.991 119.899 277.863 119.861 277.725 119.776C277.469 119.584 277.197 119.445 276.909 119.36C276.631 119.275 276.365 119.232 276.109 119.232C275.714 119.232 275.362 119.296 275.053 119.424C274.754 119.552 274.498 119.739 274.285 119.984C274.082 120.219 273.927 120.512 273.821 120.864C273.714 121.205 273.661 121.605 273.661 122.064C273.661 122.971 273.874 123.685 274.301 124.208C274.727 124.72 275.33 124.976 276.109 124.976C276.365 124.976 276.631 124.939 276.909 124.864C277.186 124.779 277.458 124.64 277.725 124.448C277.863 124.363 277.991 124.331 278.109 124.352C278.226 124.363 278.322 124.411 278.397 124.496C278.482 124.571 278.535 124.667 278.557 124.784C278.578 124.891 278.567 125.003 278.525 125.12C278.493 125.237 278.418 125.333 278.301 125.408C277.959 125.664 277.586 125.851 277.181 125.968C276.775 126.085 276.386 126.144 276.013 126.144ZM280.794 126.08C280.57 126.08 280.394 126.011 280.266 125.872C280.138 125.733 280.074 125.541 280.074 125.296V118.912C280.074 118.656 280.138 118.464 280.266 118.336C280.394 118.197 280.57 118.128 280.794 118.128C281.029 118.128 281.21 118.197 281.338 118.336C281.466 118.464 281.53 118.656 281.53 118.912V125.296C281.53 125.541 281.466 125.733 281.338 125.872C281.221 126.011 281.04 126.08 280.794 126.08ZM280.794 116.4C280.506 116.4 280.277 116.325 280.106 116.176C279.946 116.016 279.866 115.808 279.866 115.552C279.866 115.275 279.946 115.067 280.106 114.928C280.277 114.779 280.506 114.704 280.794 114.704C281.104 114.704 281.333 114.779 281.482 114.928C281.642 115.067 281.722 115.275 281.722 115.552C281.722 115.808 281.642 116.016 281.482 116.176C281.333 116.325 281.104 116.4 280.794 116.4ZM286.351 126.144C285.818 126.144 285.332 126.037 284.895 125.824C284.468 125.611 284.132 125.323 283.887 124.96C283.652 124.597 283.535 124.192 283.535 123.744C283.535 123.168 283.679 122.715 283.967 122.384C284.255 122.053 284.74 121.819 285.423 121.68C286.106 121.531 287.023 121.456 288.175 121.456H288.927V122.384H288.207C287.386 122.384 286.735 122.421 286.255 122.496C285.786 122.571 285.455 122.704 285.263 122.896C285.071 123.077 284.975 123.333 284.975 123.664C284.975 124.08 285.119 124.421 285.407 124.688C285.706 124.955 286.111 125.088 286.623 125.088C287.028 125.088 287.386 124.992 287.695 124.8C288.004 124.597 288.25 124.331 288.431 124C288.612 123.659 288.703 123.269 288.703 122.832V120.992C288.703 120.363 288.575 119.909 288.319 119.632C288.063 119.344 287.631 119.2 287.023 119.2C286.671 119.2 286.308 119.248 285.935 119.344C285.562 119.44 285.172 119.589 284.767 119.792C284.607 119.867 284.468 119.893 284.351 119.872C284.234 119.84 284.138 119.776 284.063 119.68C283.999 119.573 283.962 119.461 283.951 119.344C283.951 119.216 283.978 119.093 284.031 118.976C284.095 118.859 284.202 118.773 284.351 118.72C284.82 118.485 285.284 118.32 285.743 118.224C286.212 118.117 286.65 118.064 287.055 118.064C287.748 118.064 288.319 118.176 288.767 118.4C289.215 118.613 289.551 118.949 289.775 119.408C289.999 119.856 290.111 120.432 290.111 121.136V125.36C290.111 125.605 290.052 125.792 289.935 125.92C289.818 126.048 289.647 126.112 289.423 126.112C289.21 126.112 289.039 126.048 288.911 125.92C288.794 125.792 288.735 125.605 288.735 125.36V124.224H288.879C288.794 124.619 288.634 124.96 288.399 125.248C288.164 125.536 287.871 125.76 287.519 125.92C287.178 126.069 286.788 126.144 286.351 126.144ZM294.85 126.144C294.05 126.144 293.442 125.909 293.026 125.44C292.61 124.96 292.402 124.272 292.402 123.376V115.344C292.402 115.099 292.466 114.917 292.594 114.8C292.722 114.672 292.898 114.608 293.122 114.608C293.357 114.608 293.538 114.672 293.666 114.8C293.794 114.917 293.858 115.099 293.858 115.344V123.264C293.858 123.819 293.97 124.235 294.194 124.512C294.429 124.779 294.76 124.912 295.186 124.912C295.282 124.912 295.368 124.912 295.442 124.912C295.517 124.901 295.592 124.891 295.666 124.88C295.784 124.869 295.869 124.901 295.922 124.976C295.976 125.051 296.002 125.2 296.002 125.424C296.002 125.627 295.954 125.787 295.858 125.904C295.773 126.011 295.629 126.08 295.426 126.112C295.33 126.123 295.234 126.128 295.138 126.128C295.042 126.139 294.946 126.144 294.85 126.144ZM302.139 126.112C301.915 126.112 301.739 126.048 301.611 125.92C301.483 125.792 301.419 125.605 301.419 125.36V118.832C301.419 118.587 301.483 118.405 301.611 118.288C301.739 118.16 301.915 118.096 302.139 118.096C302.363 118.096 302.533 118.16 302.651 118.288C302.779 118.405 302.843 118.587 302.843 118.832V120.192L302.667 119.904C302.869 119.317 303.195 118.864 303.643 118.544C304.101 118.224 304.645 118.064 305.275 118.064C305.936 118.064 306.469 118.224 306.875 118.544C307.28 118.853 307.552 119.328 307.691 119.968H307.467C307.659 119.381 308 118.917 308.491 118.576C308.992 118.235 309.573 118.064 310.235 118.064C310.821 118.064 311.301 118.181 311.675 118.416C312.059 118.64 312.347 118.981 312.539 119.44C312.731 119.888 312.827 120.464 312.827 121.168V125.36C312.827 125.605 312.763 125.792 312.635 125.92C312.507 126.048 312.331 126.112 312.107 126.112C311.872 126.112 311.691 126.048 311.563 125.92C311.435 125.792 311.371 125.605 311.371 125.36V121.232C311.371 120.549 311.253 120.048 311.019 119.728C310.784 119.408 310.389 119.248 309.835 119.248C309.227 119.248 308.741 119.461 308.379 119.888C308.027 120.304 307.851 120.88 307.851 121.616V125.36C307.851 125.605 307.787 125.792 307.659 125.92C307.541 126.048 307.365 126.112 307.131 126.112C306.896 126.112 306.715 126.048 306.587 125.92C306.459 125.792 306.395 125.605 306.395 125.36V121.232C306.395 120.549 306.277 120.048 306.043 119.728C305.808 119.408 305.413 119.248 304.859 119.248C304.251 119.248 303.765 119.461 303.403 119.888C303.051 120.304 302.875 120.88 302.875 121.616V125.36C302.875 125.861 302.629 126.112 302.139 126.112ZM318.768 126.144C317.925 126.144 317.2 125.984 316.592 125.664C315.995 125.333 315.531 124.869 315.2 124.272C314.869 123.664 314.704 122.949 314.704 122.128C314.704 121.317 314.864 120.608 315.184 120C315.515 119.392 315.963 118.917 316.528 118.576C317.104 118.235 317.76 118.064 318.496 118.064C319.019 118.064 319.488 118.155 319.904 118.336C320.331 118.507 320.693 118.757 320.992 119.088C321.291 119.419 321.515 119.824 321.664 120.304C321.824 120.773 321.904 121.307 321.904 121.904C321.904 122.075 321.851 122.208 321.744 122.304C321.648 122.389 321.504 122.432 321.312 122.432H315.84V121.504H320.944L320.672 121.728C320.672 121.173 320.587 120.704 320.416 120.32C320.256 119.925 320.016 119.627 319.696 119.424C319.387 119.221 318.997 119.12 318.528 119.12C318.016 119.12 317.579 119.243 317.216 119.488C316.853 119.723 316.576 120.059 316.384 120.496C316.192 120.923 316.096 121.419 316.096 121.984V122.08C316.096 123.04 316.325 123.765 316.784 124.256C317.243 124.747 317.904 124.992 318.768 124.992C319.109 124.992 319.456 124.949 319.808 124.864C320.171 124.779 320.517 124.624 320.848 124.4C321.008 124.304 321.152 124.261 321.28 124.272C321.419 124.272 321.531 124.315 321.616 124.4C321.701 124.475 321.755 124.571 321.776 124.688C321.797 124.795 321.781 124.912 321.728 125.04C321.675 125.168 321.573 125.28 321.424 125.376C321.072 125.621 320.651 125.813 320.16 125.952C319.68 126.08 319.216 126.144 318.768 126.144ZM326.691 126.144C326.008 126.144 325.406 125.984 324.883 125.664C324.371 125.333 323.971 124.864 323.683 124.256C323.395 123.637 323.251 122.917 323.251 122.096C323.251 121.264 323.39 120.549 323.667 119.952C323.955 119.344 324.355 118.88 324.867 118.56C325.39 118.229 325.998 118.064 326.691 118.064C327.384 118.064 327.982 118.24 328.483 118.592C328.984 118.933 329.32 119.392 329.491 119.968H329.315V115.344C329.315 115.099 329.374 114.917 329.491 114.8C329.619 114.672 329.8 114.608 330.035 114.608C330.27 114.608 330.451 114.672 330.579 114.8C330.707 114.917 330.771 115.099 330.771 115.344V125.36C330.771 125.605 330.707 125.792 330.579 125.92C330.451 126.048 330.27 126.112 330.035 126.112C329.811 126.112 329.635 126.048 329.507 125.92C329.379 125.792 329.315 125.605 329.315 125.36V123.904L329.491 124.192C329.331 124.789 328.995 125.264 328.483 125.616C327.982 125.968 327.384 126.144 326.691 126.144ZM327.027 124.992C327.496 124.992 327.902 124.88 328.243 124.656C328.595 124.432 328.862 124.107 329.043 123.68C329.235 123.253 329.331 122.725 329.331 122.096C329.331 121.157 329.123 120.443 328.707 119.952C328.291 119.461 327.731 119.216 327.027 119.216C326.568 119.216 326.163 119.328 325.811 119.552C325.47 119.765 325.203 120.085 325.011 120.512C324.819 120.939 324.723 121.467 324.723 122.096C324.723 123.035 324.931 123.755 325.347 124.256C325.774 124.747 326.334 124.992 327.027 124.992ZM333.826 126.08C333.602 126.08 333.426 126.011 333.298 125.872C333.17 125.733 333.106 125.541 333.106 125.296V118.912C333.106 118.656 333.17 118.464 333.298 118.336C333.426 118.197 333.602 118.128 333.826 118.128C334.06 118.128 334.242 118.197 334.37 118.336C334.498 118.464 334.562 118.656 334.562 118.912V125.296C334.562 125.541 334.498 125.733 334.37 125.872C334.252 126.011 334.071 126.08 333.826 126.08ZM333.826 116.4C333.538 116.4 333.308 116.325 333.138 116.176C332.978 116.016 332.898 115.808 332.898 115.552C332.898 115.275 332.978 115.067 333.138 114.928C333.308 114.779 333.538 114.704 333.826 114.704C334.135 114.704 334.364 114.779 334.514 114.928C334.674 115.067 334.754 115.275 334.754 115.552C334.754 115.808 334.674 116.016 334.514 116.176C334.364 116.325 334.135 116.4 333.826 116.4ZM339.382 126.144C338.849 126.144 338.364 126.037 337.926 125.824C337.5 125.611 337.164 125.323 336.918 124.96C336.684 124.597 336.566 124.192 336.566 123.744C336.566 123.168 336.71 122.715 336.998 122.384C337.286 122.053 337.772 121.819 338.454 121.68C339.137 121.531 340.054 121.456 341.206 121.456H341.958V122.384H341.238C340.417 122.384 339.766 122.421 339.286 122.496C338.817 122.571 338.486 122.704 338.294 122.896C338.102 123.077 338.006 123.333 338.006 123.664C338.006 124.08 338.15 124.421 338.438 124.688C338.737 124.955 339.142 125.088 339.654 125.088C340.06 125.088 340.417 124.992 340.726 124.8C341.036 124.597 341.281 124.331 341.462 124C341.644 123.659 341.734 123.269 341.734 122.832V120.992C341.734 120.363 341.606 119.909 341.35 119.632C341.094 119.344 340.662 119.2 340.054 119.2C339.702 119.2 339.34 119.248 338.966 119.344C338.593 119.44 338.204 119.589 337.798 119.792C337.638 119.867 337.5 119.893 337.382 119.872C337.265 119.84 337.169 119.776 337.094 119.68C337.03 119.573 336.993 119.461 336.982 119.344C336.982 119.216 337.009 119.093 337.062 118.976C337.126 118.859 337.233 118.773 337.382 118.72C337.852 118.485 338.316 118.32 338.774 118.224C339.244 118.117 339.681 118.064 340.086 118.064C340.78 118.064 341.35 118.176 341.798 118.4C342.246 118.613 342.582 118.949 342.806 119.408C343.03 119.856 343.142 120.432 343.142 121.136V125.36C343.142 125.605 343.084 125.792 342.966 125.92C342.849 126.048 342.678 126.112 342.454 126.112C342.241 126.112 342.07 126.048 341.942 125.92C341.825 125.792 341.766 125.605 341.766 125.36V124.224H341.91C341.825 124.619 341.665 124.96 341.43 125.248C341.196 125.536 340.902 125.76 340.55 125.92C340.209 126.069 339.82 126.144 339.382 126.144ZM350.358 126.112C350.134 126.112 349.958 126.048 349.83 125.92C349.702 125.792 349.638 125.605 349.638 125.36V118.832C349.638 118.587 349.702 118.405 349.83 118.288C349.958 118.16 350.134 118.096 350.358 118.096C350.582 118.096 350.752 118.16 350.87 118.288C350.998 118.405 351.062 118.587 351.062 118.832V120.192L350.886 119.904C351.088 119.317 351.414 118.864 351.862 118.544C352.32 118.224 352.864 118.064 353.494 118.064C354.155 118.064 354.688 118.224 355.094 118.544C355.499 118.853 355.771 119.328 355.91 119.968H355.686C355.878 119.381 356.219 118.917 356.71 118.576C357.211 118.235 357.792 118.064 358.454 118.064C359.04 118.064 359.52 118.181 359.894 118.416C360.278 118.64 360.566 118.981 360.758 119.44C360.95 119.888 361.046 120.464 361.046 121.168V125.36C361.046 125.605 360.982 125.792 360.854 125.92C360.726 126.048 360.55 126.112 360.326 126.112C360.091 126.112 359.91 126.048 359.782 125.92C359.654 125.792 359.59 125.605 359.59 125.36V121.232C359.59 120.549 359.472 120.048 359.238 119.728C359.003 119.408 358.608 119.248 358.054 119.248C357.446 119.248 356.96 119.461 356.598 119.888C356.246 120.304 356.07 120.88 356.07 121.616V125.36C356.07 125.605 356.006 125.792 355.878 125.92C355.76 126.048 355.584 126.112 355.35 126.112C355.115 126.112 354.934 126.048 354.806 125.92C354.678 125.792 354.614 125.605 354.614 125.36V121.232C354.614 120.549 354.496 120.048 354.262 119.728C354.027 119.408 353.632 119.248 353.078 119.248C352.47 119.248 351.984 119.461 351.622 119.888C351.27 120.304 351.094 120.88 351.094 121.616V125.36C351.094 125.861 350.848 126.112 350.358 126.112ZM365.867 126.144C365.333 126.144 364.848 126.037 364.411 125.824C363.984 125.611 363.648 125.323 363.403 124.96C363.168 124.597 363.051 124.192 363.051 123.744C363.051 123.168 363.195 122.715 363.483 122.384C363.771 122.053 364.256 121.819 364.939 121.68C365.621 121.531 366.539 121.456 367.691 121.456H368.443V122.384H367.723C366.901 122.384 366.251 122.421 365.771 122.496C365.301 122.571 364.971 122.704 364.779 122.896C364.587 123.077 364.491 123.333 364.491 123.664C364.491 124.08 364.635 124.421 364.923 124.688C365.221 124.955 365.627 125.088 366.139 125.088C366.544 125.088 366.901 124.992 367.211 124.8C367.52 124.597 367.765 124.331 367.947 124C368.128 123.659 368.219 123.269 368.219 122.832V120.992C368.219 120.363 368.091 119.909 367.835 119.632C367.579 119.344 367.147 119.2 366.539 119.2C366.187 119.2 365.824 119.248 365.451 119.344C365.077 119.44 364.688 119.589 364.283 119.792C364.123 119.867 363.984 119.893 363.867 119.872C363.749 119.84 363.653 119.776 363.579 119.68C363.515 119.573 363.477 119.461 363.467 119.344C363.467 119.216 363.493 119.093 363.547 118.976C363.611 118.859 363.717 118.773 363.867 118.72C364.336 118.485 364.8 118.32 365.259 118.224C365.728 118.117 366.165 118.064 366.571 118.064C367.264 118.064 367.835 118.176 368.283 118.4C368.731 118.613 369.067 118.949 369.291 119.408C369.515 119.856 369.627 120.432 369.627 121.136V125.36C369.627 125.605 369.568 125.792 369.451 125.92C369.333 126.048 369.163 126.112 368.939 126.112C368.725 126.112 368.555 126.048 368.427 125.92C368.309 125.792 368.251 125.605 368.251 125.36V124.224H368.395C368.309 124.619 368.149 124.96 367.915 125.248C367.68 125.536 367.387 125.76 367.035 125.92C366.693 126.069 366.304 126.144 365.867 126.144ZM372.638 126.112C372.414 126.112 372.238 126.048 372.11 125.92C371.982 125.792 371.918 125.605 371.918 125.36V118.832C371.918 118.587 371.982 118.405 372.11 118.288C372.238 118.16 372.414 118.096 372.638 118.096C372.862 118.096 373.033 118.16 373.15 118.288C373.278 118.405 373.342 118.587 373.342 118.832V120.144L373.166 119.904C373.39 119.296 373.753 118.837 374.254 118.528C374.766 118.219 375.347 118.064 375.998 118.064C376.627 118.064 377.145 118.176 377.55 118.4C377.955 118.624 378.259 118.965 378.462 119.424C378.665 119.883 378.766 120.464 378.766 121.168V125.36C378.766 125.605 378.702 125.792 378.574 125.92C378.457 126.048 378.281 126.112 378.046 126.112C377.811 126.112 377.63 126.048 377.502 125.92C377.374 125.792 377.31 125.605 377.31 125.36V121.248C377.31 120.555 377.177 120.048 376.91 119.728C376.643 119.408 376.217 119.248 375.63 119.248C374.947 119.248 374.398 119.461 373.982 119.888C373.577 120.304 373.374 120.869 373.374 121.584V125.36C373.374 125.861 373.129 126.112 372.638 126.112ZM383.554 126.144C383.021 126.144 382.536 126.037 382.098 125.824C381.672 125.611 381.336 125.323 381.09 124.96C380.856 124.597 380.738 124.192 380.738 123.744C380.738 123.168 380.882 122.715 381.17 122.384C381.458 122.053 381.944 121.819 382.626 121.68C383.309 121.531 384.226 121.456 385.378 121.456H386.13V122.384H385.41C384.589 122.384 383.938 122.421 383.458 122.496C382.989 122.571 382.658 122.704 382.466 122.896C382.274 123.077 382.178 123.333 382.178 123.664C382.178 124.08 382.322 124.421 382.61 124.688C382.909 124.955 383.314 125.088 383.826 125.088C384.232 125.088 384.589 124.992 384.898 124.8C385.208 124.597 385.453 124.331 385.634 124C385.816 123.659 385.906 123.269 385.906 122.832V120.992C385.906 120.363 385.778 119.909 385.522 119.632C385.266 119.344 384.834 119.2 384.226 119.2C383.874 119.2 383.512 119.248 383.138 119.344C382.765 119.44 382.376 119.589 381.97 119.792C381.81 119.867 381.672 119.893 381.554 119.872C381.437 119.84 381.341 119.776 381.266 119.68C381.202 119.573 381.165 119.461 381.154 119.344C381.154 119.216 381.181 119.093 381.234 118.976C381.298 118.859 381.405 118.773 381.554 118.72C382.024 118.485 382.488 118.32 382.946 118.224C383.416 118.117 383.853 118.064 384.258 118.064C384.952 118.064 385.522 118.176 385.97 118.4C386.418 118.613 386.754 118.949 386.978 119.408C387.202 119.856 387.314 120.432 387.314 121.136V125.36C387.314 125.605 387.256 125.792 387.138 125.92C387.021 126.048 386.85 126.112 386.626 126.112C386.413 126.112 386.242 126.048 386.114 125.92C385.997 125.792 385.938 125.605 385.938 125.36V124.224H386.082C385.997 124.619 385.837 124.96 385.602 125.248C385.368 125.536 385.074 125.76 384.722 125.92C384.381 126.069 383.992 126.144 383.554 126.144ZM393.11 129.024C392.534 129.024 391.974 128.96 391.43 128.832C390.896 128.704 390.411 128.507 389.974 128.24C389.835 128.155 389.739 128.053 389.686 127.936C389.643 127.829 389.632 127.717 389.654 127.6C389.686 127.483 389.739 127.376 389.814 127.28C389.899 127.195 389.995 127.136 390.102 127.104C390.219 127.083 390.336 127.109 390.454 127.184C390.923 127.451 391.371 127.632 391.798 127.728C392.224 127.824 392.63 127.872 393.014 127.872C393.771 127.872 394.336 127.675 394.71 127.28C395.094 126.896 395.286 126.331 395.286 125.584V123.856H395.43C395.28 124.453 394.944 124.928 394.422 125.28C393.91 125.632 393.312 125.808 392.63 125.808C391.926 125.808 391.312 125.648 390.789 125.328C390.267 124.997 389.862 124.544 389.574 123.968C389.286 123.381 389.142 122.704 389.142 121.936C389.142 121.349 389.222 120.821 389.382 120.352C389.552 119.872 389.787 119.467 390.086 119.136C390.395 118.795 390.763 118.533 391.19 118.352C391.616 118.16 392.096 118.064 392.63 118.064C393.323 118.064 393.926 118.24 394.438 118.592C394.95 118.944 395.28 119.419 395.43 120.016L395.254 120.24V118.832C395.254 118.587 395.318 118.405 395.446 118.288C395.574 118.16 395.755 118.096 395.99 118.096C396.214 118.096 396.39 118.16 396.517 118.288C396.646 118.405 396.71 118.587 396.71 118.832V125.392C396.71 126.597 396.4 127.504 395.782 128.112C395.174 128.72 394.283 129.024 393.11 129.024ZM392.95 124.656C393.43 124.656 393.84 124.549 394.182 124.336C394.534 124.112 394.8 123.797 394.982 123.392C395.174 122.976 395.27 122.491 395.27 121.936C395.27 121.093 395.062 120.432 394.646 119.952C394.23 119.461 393.664 119.216 392.95 119.216C392.47 119.216 392.054 119.328 391.702 119.552C391.36 119.765 391.094 120.075 390.902 120.48C390.71 120.885 390.614 121.371 390.614 121.936C390.614 122.768 390.822 123.429 391.238 123.92C391.664 124.411 392.235 124.656 392.95 124.656ZM402.643 126.144C401.8 126.144 401.075 125.984 400.467 125.664C399.87 125.333 399.406 124.869 399.075 124.272C398.744 123.664 398.579 122.949 398.579 122.128C398.579 121.317 398.739 120.608 399.059 120C399.39 119.392 399.838 118.917 400.403 118.576C400.979 118.235 401.635 118.064 402.371 118.064C402.894 118.064 403.363 118.155 403.779 118.336C404.206 118.507 404.568 118.757 404.867 119.088C405.166 119.419 405.39 119.824 405.539 120.304C405.699 120.773 405.779 121.307 405.779 121.904C405.779 122.075 405.726 122.208 405.619 122.304C405.523 122.389 405.379 122.432 405.187 122.432H399.715V121.504H404.819L404.547 121.728C404.547 121.173 404.462 120.704 404.291 120.32C404.131 119.925 403.891 119.627 403.571 119.424C403.262 119.221 402.872 119.12 402.403 119.12C401.891 119.12 401.454 119.243 401.091 119.488C400.728 119.723 400.451 120.059 400.259 120.496C400.067 120.923 399.971 121.419 399.971 121.984V122.08C399.971 123.04 400.2 123.765 400.659 124.256C401.118 124.747 401.779 124.992 402.643 124.992C402.984 124.992 403.331 124.949 403.683 124.864C404.046 124.779 404.392 124.624 404.723 124.4C404.883 124.304 405.027 124.261 405.155 124.272C405.294 124.272 405.406 124.315 405.491 124.4C405.576 124.475 405.63 124.571 405.651 124.688C405.672 124.795 405.656 124.912 405.603 125.04C405.55 125.168 405.448 125.28 405.299 125.376C404.947 125.621 404.526 125.813 404.035 125.952C403.555 126.08 403.091 126.144 402.643 126.144ZM408.342 126.112C408.118 126.112 407.942 126.048 407.814 125.92C407.686 125.792 407.622 125.605 407.622 125.36V118.832C407.622 118.587 407.686 118.405 407.814 118.288C407.942 118.16 408.118 118.096 408.342 118.096C408.566 118.096 408.737 118.16 408.854 118.288C408.982 118.405 409.046 118.587 409.046 118.832V120.192L408.87 119.904C409.073 119.317 409.398 118.864 409.846 118.544C410.305 118.224 410.849 118.064 411.478 118.064C412.139 118.064 412.673 118.224 413.078 118.544C413.483 118.853 413.755 119.328 413.894 119.968H413.67C413.862 119.381 414.203 118.917 414.694 118.576C415.195 118.235 415.777 118.064 416.438 118.064C417.025 118.064 417.505 118.181 417.878 118.416C418.262 118.64 418.55 118.981 418.742 119.44C418.934 119.888 419.03 120.464 419.03 121.168V125.36C419.03 125.605 418.966 125.792 418.838 125.92C418.71 126.048 418.534 126.112 418.31 126.112C418.075 126.112 417.894 126.048 417.766 125.92C417.638 125.792 417.574 125.605 417.574 125.36V121.232C417.574 120.549 417.457 120.048 417.222 119.728C416.987 119.408 416.593 119.248 416.038 119.248C415.43 119.248 414.945 119.461 414.582 119.888C414.23 120.304 414.054 120.88 414.054 121.616V125.36C414.054 125.605 413.99 125.792 413.862 125.92C413.745 126.048 413.569 126.112 413.334 126.112C413.099 126.112 412.918 126.048 412.79 125.92C412.662 125.792 412.598 125.605 412.598 125.36V121.232C412.598 120.549 412.481 120.048 412.246 119.728C412.011 119.408 411.617 119.248 411.062 119.248C410.454 119.248 409.969 119.461 409.606 119.888C409.254 120.304 409.078 120.88 409.078 121.616V125.36C409.078 125.861 408.833 126.112 408.342 126.112ZM424.971 126.144C424.128 126.144 423.403 125.984 422.795 125.664C422.198 125.333 421.734 124.869 421.403 124.272C421.072 123.664 420.907 122.949 420.907 122.128C420.907 121.317 421.067 120.608 421.387 120C421.718 119.392 422.166 118.917 422.731 118.576C423.307 118.235 423.963 118.064 424.699 118.064C425.222 118.064 425.691 118.155 426.107 118.336C426.534 118.507 426.896 118.757 427.195 119.088C427.494 119.419 427.718 119.824 427.867 120.304C428.027 120.773 428.107 121.307 428.107 121.904C428.107 122.075 428.054 122.208 427.947 122.304C427.851 122.389 427.707 122.432 427.515 122.432H422.043V121.504H427.147L426.875 121.728C426.875 121.173 426.79 120.704 426.619 120.32C426.459 119.925 426.219 119.627 425.899 119.424C425.59 119.221 425.2 119.12 424.731 119.12C424.219 119.12 423.782 119.243 423.419 119.488C423.056 119.723 422.779 120.059 422.587 120.496C422.395 120.923 422.299 121.419 422.299 121.984V122.08C422.299 123.04 422.528 123.765 422.987 124.256C423.446 124.747 424.107 124.992 424.971 124.992C425.312 124.992 425.659 124.949 426.011 124.864C426.374 124.779 426.72 124.624 427.051 124.4C427.211 124.304 427.355 124.261 427.483 124.272C427.622 124.272 427.734 124.315 427.819 124.4C427.904 124.475 427.958 124.571 427.979 124.688C428 124.795 427.984 124.912 427.931 125.04C427.878 125.168 427.776 125.28 427.627 125.376C427.275 125.621 426.854 125.813 426.363 125.952C425.883 126.08 425.419 126.144 424.971 126.144ZM430.638 126.112C430.414 126.112 430.238 126.048 430.11 125.92C429.982 125.792 429.918 125.605 429.918 125.36V118.832C429.918 118.587 429.982 118.405 430.11 118.288C430.238 118.16 430.414 118.096 430.638 118.096C430.862 118.096 431.033 118.16 431.15 118.288C431.278 118.405 431.342 118.587 431.342 118.832V120.144L431.166 119.904C431.39 119.296 431.753 118.837 432.254 118.528C432.766 118.219 433.347 118.064 433.998 118.064C434.627 118.064 435.145 118.176 435.55 118.4C435.955 118.624 436.259 118.965 436.462 119.424C436.665 119.883 436.766 120.464 436.766 121.168V125.36C436.766 125.605 436.702 125.792 436.574 125.92C436.457 126.048 436.281 126.112 436.046 126.112C435.811 126.112 435.63 126.048 435.502 125.92C435.374 125.792 435.31 125.605 435.31 125.36V121.248C435.31 120.555 435.177 120.048 434.91 119.728C434.643 119.408 434.217 119.248 433.63 119.248C432.947 119.248 432.398 119.461 431.982 119.888C431.577 120.304 431.374 120.869 431.374 121.584V125.36C431.374 125.861 431.129 126.112 430.638 126.112ZM442.306 126.144C441.677 126.144 441.149 126.032 440.722 125.808C440.306 125.584 439.992 125.259 439.778 124.832C439.576 124.405 439.474 123.883 439.474 123.264V119.328H438.45C438.258 119.328 438.109 119.28 438.002 119.184C437.896 119.077 437.842 118.939 437.842 118.768C437.842 118.587 437.896 118.448 438.002 118.352C438.109 118.256 438.258 118.208 438.45 118.208H439.474V116.464C439.474 116.219 439.538 116.037 439.666 115.92C439.794 115.792 439.976 115.728 440.21 115.728C440.445 115.728 440.621 115.792 440.738 115.92C440.866 116.037 440.93 116.219 440.93 116.464V118.208H442.866C443.069 118.208 443.224 118.256 443.33 118.352C443.437 118.448 443.49 118.587 443.49 118.768C443.49 118.939 443.437 119.077 443.33 119.184C443.224 119.28 443.069 119.328 442.866 119.328H440.93V123.136C440.93 123.723 441.053 124.165 441.298 124.464C441.544 124.763 441.949 124.912 442.514 124.912C442.717 124.912 442.888 124.896 443.026 124.864C443.165 124.821 443.288 124.8 443.394 124.8C443.49 124.789 443.57 124.821 443.634 124.896C443.709 124.971 443.746 125.109 443.746 125.312C443.746 125.461 443.72 125.6 443.666 125.728C443.624 125.845 443.533 125.925 443.394 125.968C443.266 126.011 443.096 126.048 442.882 126.08C442.669 126.123 442.477 126.144 442.306 126.144ZM451.669 126.144C451.189 126.144 450.703 126.091 450.213 125.984C449.733 125.867 449.279 125.669 448.853 125.392C448.735 125.317 448.65 125.227 448.597 125.12C448.554 125.003 448.538 124.891 448.549 124.784C448.57 124.667 448.618 124.565 448.693 124.48C448.767 124.395 448.858 124.347 448.965 124.336C449.082 124.315 449.205 124.341 449.333 124.416C449.749 124.651 450.149 124.816 450.533 124.912C450.927 125.008 451.317 125.056 451.701 125.056C452.287 125.056 452.73 124.949 453.029 124.736C453.327 124.523 453.477 124.24 453.477 123.888C453.477 123.589 453.375 123.36 453.173 123.2C452.981 123.029 452.677 122.901 452.261 122.816L450.773 122.512C450.111 122.363 449.61 122.117 449.269 121.776C448.938 121.424 448.773 120.976 448.773 120.432C448.773 119.952 448.901 119.536 449.157 119.184C449.423 118.821 449.791 118.544 450.261 118.352C450.73 118.16 451.269 118.064 451.877 118.064C452.346 118.064 452.789 118.128 453.205 118.256C453.631 118.373 454.015 118.555 454.357 118.8C454.485 118.875 454.565 118.971 454.597 119.088C454.639 119.195 454.645 119.307 454.613 119.424C454.591 119.531 454.543 119.621 454.469 119.696C454.394 119.771 454.298 119.819 454.181 119.84C454.063 119.851 453.935 119.819 453.797 119.744C453.487 119.531 453.167 119.381 452.837 119.296C452.517 119.2 452.197 119.152 451.877 119.152C451.301 119.152 450.863 119.264 450.565 119.488C450.277 119.712 450.133 120.005 450.133 120.368C450.133 120.645 450.218 120.875 450.389 121.056C450.57 121.237 450.853 121.371 451.237 121.456L452.725 121.76C453.418 121.909 453.941 122.149 454.293 122.48C454.645 122.8 454.821 123.237 454.821 123.792C454.821 124.517 454.533 125.093 453.957 125.52C453.391 125.936 452.629 126.144 451.669 126.144ZM460.027 126.144C459.259 126.144 458.592 125.979 458.027 125.648C457.462 125.317 457.024 124.848 456.715 124.24C456.406 123.632 456.251 122.917 456.251 122.096C456.251 121.477 456.336 120.923 456.507 120.432C456.688 119.931 456.944 119.504 457.275 119.152C457.606 118.8 458 118.533 458.459 118.352C458.928 118.16 459.451 118.064 460.027 118.064C460.795 118.064 461.462 118.229 462.027 118.56C462.592 118.891 463.03 119.36 463.339 119.968C463.648 120.565 463.803 121.275 463.803 122.096C463.803 122.715 463.712 123.275 463.531 123.776C463.36 124.277 463.11 124.704 462.779 125.056C462.448 125.408 462.048 125.68 461.579 125.872C461.12 126.053 460.603 126.144 460.027 126.144ZM460.027 124.992C460.496 124.992 460.902 124.88 461.243 124.656C461.595 124.432 461.862 124.107 462.043 123.68C462.235 123.253 462.331 122.725 462.331 122.096C462.331 121.157 462.123 120.443 461.707 119.952C461.291 119.461 460.731 119.216 460.027 119.216C459.568 119.216 459.163 119.328 458.811 119.552C458.47 119.765 458.203 120.085 458.011 120.512C457.819 120.939 457.723 121.467 457.723 122.096C457.723 123.035 457.931 123.755 458.347 124.256C458.774 124.747 459.334 124.992 460.027 124.992ZM466.774 126.112C466.539 126.112 466.358 126.048 466.23 125.92C466.102 125.792 466.038 125.605 466.038 125.36V119.328H465.078C464.886 119.328 464.737 119.28 464.63 119.184C464.523 119.077 464.47 118.939 464.47 118.768C464.47 118.587 464.523 118.448 464.63 118.352C464.737 118.256 464.886 118.208 465.078 118.208H466.438L466.038 118.592V118C466.038 116.965 466.289 116.181 466.79 115.648C467.302 115.104 468.049 114.789 469.03 114.704L469.526 114.672C469.686 114.651 469.814 114.677 469.91 114.752C470.006 114.816 470.07 114.901 470.102 115.008C470.134 115.115 470.134 115.227 470.102 115.344C470.081 115.451 470.033 115.547 469.958 115.632C469.883 115.717 469.787 115.765 469.67 115.776L469.318 115.792C468.678 115.845 468.214 116.037 467.926 116.368C467.638 116.688 467.494 117.168 467.494 117.808V118.448L467.286 118.208H469.126C469.329 118.208 469.483 118.256 469.59 118.352C469.697 118.448 469.75 118.587 469.75 118.768C469.75 118.939 469.697 119.077 469.59 119.184C469.483 119.28 469.329 119.328 469.126 119.328H467.494V125.36C467.494 125.861 467.254 126.112 466.774 126.112ZM473.869 126.144C473.239 126.144 472.711 126.032 472.285 125.808C471.869 125.584 471.554 125.259 471.341 124.832C471.138 124.405 471.037 123.883 471.037 123.264V119.328H470.013C469.821 119.328 469.671 119.28 469.565 119.184C469.458 119.077 469.405 118.939 469.405 118.768C469.405 118.587 469.458 118.448 469.565 118.352C469.671 118.256 469.821 118.208 470.013 118.208H471.037V116.464C471.037 116.219 471.101 116.037 471.229 115.92C471.357 115.792 471.538 115.728 471.773 115.728C472.007 115.728 472.183 115.792 472.301 115.92C472.429 116.037 472.493 116.219 472.493 116.464V118.208H474.429C474.631 118.208 474.786 118.256 474.893 118.352C474.999 118.448 475.053 118.587 475.053 118.768C475.053 118.939 474.999 119.077 474.893 119.184C474.786 119.28 474.631 119.328 474.429 119.328H472.493V123.136C472.493 123.723 472.615 124.165 472.861 124.464C473.106 124.763 473.511 124.912 474.077 124.912C474.279 124.912 474.45 124.896 474.589 124.864C474.727 124.821 474.85 124.8 474.957 124.8C475.053 124.789 475.133 124.821 475.197 124.896C475.271 124.971 475.309 125.109 475.309 125.312C475.309 125.461 475.282 125.6 475.229 125.728C475.186 125.845 475.095 125.925 474.957 125.968C474.829 126.011 474.658 126.048 474.445 126.08C474.231 126.123 474.039 126.144 473.869 126.144ZM479.249 126.112C479.046 126.112 478.87 126.064 478.721 125.968C478.571 125.861 478.454 125.691 478.369 125.456L475.985 119.104C475.91 118.901 475.889 118.725 475.921 118.576C475.953 118.427 476.027 118.309 476.145 118.224C476.262 118.139 476.417 118.096 476.609 118.096C476.79 118.096 476.934 118.139 477.041 118.224C477.147 118.309 477.238 118.464 477.312 118.688L479.489 124.832H479.105L481.345 118.656C481.419 118.464 481.515 118.325 481.633 118.24C481.761 118.144 481.915 118.096 482.097 118.096C482.289 118.096 482.449 118.144 482.577 118.24C482.705 118.325 482.795 118.464 482.849 118.656L485.057 124.832H484.689L486.897 118.656C486.971 118.443 487.067 118.299 487.185 118.224C487.302 118.139 487.446 118.096 487.617 118.096C487.809 118.096 487.953 118.144 488.049 118.24C488.145 118.336 488.198 118.464 488.209 118.624C488.23 118.773 488.209 118.933 488.145 119.104L485.761 125.456C485.686 125.68 485.569 125.845 485.409 125.952C485.259 126.059 485.083 126.112 484.881 126.112C484.678 126.112 484.497 126.059 484.337 125.952C484.187 125.845 484.07 125.68 483.985 125.456L481.697 119.184H482.433L480.145 125.456C480.059 125.68 479.942 125.845 479.793 125.952C479.643 126.059 479.462 126.112 479.249 126.112ZM492.304 126.144C491.771 126.144 491.286 126.037 490.848 125.824C490.422 125.611 490.086 125.323 489.84 124.96C489.606 124.597 489.488 124.192 489.488 123.744C489.488 123.168 489.632 122.715 489.92 122.384C490.208 122.053 490.694 121.819 491.376 121.68C492.059 121.531 492.976 121.456 494.128 121.456H494.88V122.384H494.16C493.339 122.384 492.688 122.421 492.208 122.496C491.739 122.571 491.408 122.704 491.216 122.896C491.024 123.077 490.928 123.333 490.928 123.664C490.928 124.08 491.072 124.421 491.36 124.688C491.659 124.955 492.064 125.088 492.576 125.088C492.982 125.088 493.339 124.992 493.648 124.8C493.958 124.597 494.203 124.331 494.384 124C494.566 123.659 494.656 123.269 494.656 122.832V120.992C494.656 120.363 494.528 119.909 494.272 119.632C494.016 119.344 493.584 119.2 492.976 119.2C492.624 119.2 492.262 119.248 491.888 119.344C491.515 119.44 491.126 119.589 490.72 119.792C490.56 119.867 490.422 119.893 490.304 119.872C490.187 119.84 490.091 119.776 490.016 119.68C489.952 119.573 489.915 119.461 489.904 119.344C489.904 119.216 489.931 119.093 489.984 118.976C490.048 118.859 490.155 118.773 490.304 118.72C490.774 118.485 491.238 118.32 491.696 118.224C492.166 118.117 492.603 118.064 493.008 118.064C493.702 118.064 494.272 118.176 494.72 118.4C495.168 118.613 495.504 118.949 495.728 119.408C495.952 119.856 496.064 120.432 496.064 121.136V125.36C496.064 125.605 496.006 125.792 495.888 125.92C495.771 126.048 495.6 126.112 495.376 126.112C495.163 126.112 494.992 126.048 494.864 125.92C494.747 125.792 494.688 125.605 494.688 125.36V124.224H494.832C494.747 124.619 494.587 124.96 494.352 125.248C494.118 125.536 493.824 125.76 493.472 125.92C493.131 126.069 492.742 126.144 492.304 126.144ZM499.108 126.112C498.862 126.112 498.676 126.048 498.548 125.92C498.42 125.792 498.356 125.605 498.356 125.36V118.832C498.356 118.587 498.42 118.405 498.548 118.288C498.676 118.16 498.852 118.096 499.076 118.096C499.3 118.096 499.47 118.16 499.588 118.288C499.716 118.405 499.78 118.587 499.78 118.832V120.064H499.62C499.79 119.424 500.11 118.939 500.58 118.608C501.049 118.277 501.641 118.091 502.356 118.048C502.526 118.037 502.665 118.08 502.772 118.176C502.878 118.261 502.937 118.411 502.948 118.624C502.958 118.827 502.91 118.992 502.804 119.12C502.697 119.237 502.532 119.307 502.308 119.328L502.02 119.344C501.316 119.419 500.772 119.648 500.388 120.032C500.014 120.416 499.828 120.944 499.828 121.616V125.36C499.828 125.605 499.764 125.792 499.636 125.92C499.518 126.048 499.342 126.112 499.108 126.112ZM507.69 126.144C506.847 126.144 506.122 125.984 505.514 125.664C504.917 125.333 504.453 124.869 504.122 124.272C503.791 123.664 503.626 122.949 503.626 122.128C503.626 121.317 503.786 120.608 504.106 120C504.437 119.392 504.885 118.917 505.45 118.576C506.026 118.235 506.682 118.064 507.418 118.064C507.941 118.064 508.41 118.155 508.826 118.336C509.253 118.507 509.615 118.757 509.914 119.088C510.213 119.419 510.437 119.824 510.586 120.304C510.746 120.773 510.826 121.307 510.826 121.904C510.826 122.075 510.773 122.208 510.666 122.304C510.57 122.389 510.426 122.432 510.234 122.432H504.762V121.504H509.866L509.594 121.728C509.594 121.173 509.509 120.704 509.338 120.32C509.178 119.925 508.938 119.627 508.618 119.424C508.309 119.221 507.919 119.12 507.45 119.12C506.938 119.12 506.501 119.243 506.138 119.488C505.775 119.723 505.498 120.059 505.306 120.496C505.114 120.923 505.018 121.419 505.018 121.984V122.08C505.018 123.04 505.247 123.765 505.706 124.256C506.165 124.747 506.826 124.992 507.69 124.992C508.031 124.992 508.378 124.949 508.73 124.864C509.093 124.779 509.439 124.624 509.77 124.4C509.93 124.304 510.074 124.261 510.202 124.272C510.341 124.272 510.453 124.315 510.538 124.4C510.623 124.475 510.677 124.571 510.698 124.688C510.719 124.795 510.703 124.912 510.65 125.04C510.597 125.168 510.495 125.28 510.346 125.376C509.994 125.621 509.573 125.813 509.082 125.952C508.602 126.08 508.138 126.144 507.69 126.144Z" fill="#F3F4F6"/>
<defs>
<linearGradient id="paint0_linear_725_8" x1="523.75" y1="4.50002" x2="7.94338" y2="169.221" gradientUnits="userSpaceOnUse">
<stop stop-color="#FFAB4C"/>
<stop offset="1" stop-color="#4F46BB"/>
</linearGradient>
</defs>
</svg>
